<?xml version="1.0" standalone="no"?>
<!DOCTYPE svg PUBLIC "-//W3C//DTD SVG 20010904//EN"
 "http://www.w3.org/TR/2001/REC-SVG-20010904/DTD/svg10.dtd">
<svg version="1.0" xmlns="http://www.w3.org/2000/svg"
 width="300.000000pt" height="300.000000pt" viewBox="0 0 300.000000 300.000000"
 preserveAspectRatio="xMidYMid meet">
<metadata>
Created by potrace 1.11, written by Peter Selinger 2001-2013
</metadata>
<g transform="translate(0.000000,300.000000) scale(0.100000,-0.100000)"
fill="#000000" stroke="none">
<path d="M1494 2766 c-11 -25 -22 -46 -26 -46 -5 0 -8 -5 -8 -11 0 -6 -30 -73
-67 -150 -76 -154 -69 -149 -193 -164 -30 -4 -64 -9 -75 -11 -11 -2 -36 -6
-55 -9 -19 -3 -44 -6 -55 -9 -11 -2 -42 -7 -68 -10 -27 -4 -58 -9 -69 -11 -11
-3 -73 -7 -137 -10 -113 -5 -256 -15 -296 -20 -11 -1 -28 -3 -39 -4 -17 -1
-18 -9 -13 -123 4 -68 9 -151 13 -185 4 -35 3 -64 -2 -64 -5 -1 -34 -2 -64 -4
-30 -1 -107 -6 -170 -10 -63 -5 -123 -8 -132 -9 -10 0 -18 -1 -18 -3 0 -1 24
-53 54 -116 51 -108 54 -118 51 -178 -2 -35 -7 -140 -10 -234 l-6 -170 133
-83 c73 -46 178 -112 233 -147 55 -35 103 -64 106 -65 3 0 20 14 37 30 18 17
38 30 46 30 9 0 27 -21 42 -48 179 -314 384 -515 644 -635 150 -69 159 -71
226 -46 287 105 519 298 690 574 27 44 56 93 64 108 25 49 47 54 86 16 l33
-32 53 35 c62 41 298 204 313 215 6 4 27 19 47 33 l38 25 -4 130 -4 130 34 39
c21 24 35 54 39 80 7 46 -2 306 -10 315 -3 3 -41 6 -83 8 -42 1 -106 4 -142 7
-36 2 -75 5 -88 5 -13 1 -21 4 -18 9 6 10 18 158 21 270 2 78 0 92 -14 93 -9
1 -25 3 -36 4 -26 4 -152 13 -285 20 -117 6 -171 12 -245 25 -42 8 -170 27
-225 35 -8 1 -39 5 -68 10 l-54 8 -94 191 c-52 105 -99 195 -103 199 -5 5 -17
-12 -27 -37z"/>
</g>
</svg>
